ply
format ascii 1.0
element vertex 380
property double x
property double y
property double z
property uchar red
property uchar green
property uchar blue
end_header
-3.158870135001175 -1.2222703900110121 23.470528355094832 189 182 178
-2.2355653701368516 3.3169280091253661 21.831851508261192 138 125 117
-2.5737878662801532 -1.2250411909210879 23.652915171914753 147 143 127
-1.858592892659235 1.1606358888221406 22.871423644213618 199 189 190
-1.804233791340083 1.1261358183746513 22.910418843557842 195 185 184
-5.0388721512860899 -5.5826179438725649 24.58958385860786 63 58 54
-3.7140090203273992 1.8921123815261283 21.703996337329226 175 161 161
-6.8199525227297393 -10.148981802358593 26.373361486538062 158 156 144
0.44500394028437973 -1.2382646655335248 27.925673554059607 175 159 159
3.4238298729303551 7.660869049984969 27.485010757997557 0 0 0
-2.9523312807526243 1.2771166779375156 22.116213301996346 175 167 165
-3.8600847670841096 3.2137290385764836 21.115034392873753 163 156 152
-3.2419902043872506 2.3488397462114552 21.618312622001131 167 153 150
-1.7767952359262227 1.8477179173830498 22.695922872249263 179 165 163
-3.2093730387293053 1.6357032618187048 21.955622664794909 170 161 159
-3.5609444262488275 1.5674395418721627 21.871536258684806 174 160 157
-3.436688529936005 1.3828536725816609 22.069491727217763 174 164 162
-3.2363646258194736 1.0789548941874827 22.212843209039534 172 163 166
-2.4186710733523564 -0.12937252981965866 22.887119339546658 0 0 0
-4.2452985887150048 -0.4197050149110455 22.428730374903818 177 162 160
-4.073579688726654 -0.98860215548222874 22.716706923623939 166 150 145
-4.4543862530043885 -1.4716716518657829 22.963716235389519 187 177 176
2.9156885160610981 7.9825012706383012 27.216246327780905 0 0 0
-2.084527187113316 2.7671391718007246 22.109693493712612 138 122 115
-1.9104992732458577 2.4936940372357776 22.367537527487791 146 135 133
-2.9277443601025372 2.4330712175176057 21.770249073345617 164 154 150
-3.3807393427865349 2.3615229963457511 21.559833713447432 172 163 155
-1.6793618208371452 1.6443456985758429 22.848703208736872 184 175 174
-1.8730588442760583 1.5981337768666009 22.713369415485044 185 173 175
-2.7304739230713158 1.445688401999452 22.191306982701214 169 164 161
-3.515534870315062 1.5982332439200411 21.891011842246066 173 159 159
-3.842248536966729 1.4534391772849335 21.894499006404619 176 158 160
-3.7578396242241543 1.2175704317431795 22.002999637392353 175 168 169
-3.1634058998875094 1.0212469132690796 22.259465709503036 175 166 168
-1.9420634602925353 0.18671967652416019 23.007915800608821 0 0 0
-3.9545245030150005 0.45480298141518449 22.281470351138843 176 160 160
-3.9545245030150005 0.45480298141518449 22.281470351138843 176 160 160
-3.8507171120873798 0.013741561210236911 22.493922336252599 173 164 162
-3.8280232720746414 -0.54439575375521976 22.6110440160735 187 170 170
-3.6341663591301532 -0.89424608561333863 22.976348846961038 176 160 161
-3.3236090918750811 1.8464709688634673 21.803339189619987 169 161 158
-3.2461396066026613 0.57486807832405495 22.401913001921717 175 170 165
-3.7680325732667188 0.33221401531454892 22.406012480305669 178 159 155
-3.7308626870209931 -0.98124771186749649 22.924071846482938 181 167 164
-4.7604986451008342 -1.471780623947994 22.913927855563511 169 160 155
-6.5632612905307912 -10.597694513963461 26.699884320048284 137 139 126
-4.6962364811401383 -0.22681760945090895 22.476865638710912 185 157 156
-4.6948449745074257 -0.22210350298452608 22.474370853108674 185 157 156
-6.8142143933123807 -11.364508246956682 27.107230113727525 132 132 122
-2.1051435744523475 2.7793952434693869 22.152525451742321 163 150 143
-2.1051435744523475 2.7793952434693869 22.152525451742321 163 150 143
-3.1992730651768744 2.295021127256216 21.668932649639782 187 128 122
-3.8414495357216176 4.0977828111676402 20.738971676704981 171 154 146
-2.1341703030559835 3.4736235880767743 21.849594382823799 158 143 137
-2.3791684889430247 3.1238683805142782 21.863768867606886 166 153 146
-4.9667677130665027 -6.5674139822645659 25.060199515295789 140 133 121
-6.0190099620525288 -8.9307663256640595 25.983092368865815 132 125 115
-7.0028809112644481 -12.473769161600893 28.018309219512282 165 171 161
-1.4146775876746285 -6.5081479566522953 26.550797022759543 162 159 146
-8.1329211153620218 -7.6171992922923639 26.798369710198209 197 183 174
-5.7015868103321843 -9.118010034296077 26.091883307312305 157 151 139
-0.61323975855266899 -10.746854007828938 29.763668853380878 0 0 0
-3.201811267618992 -11.991330465077811 29.194851858338101 170 172 159
-6.1387966909924039 -15.058356465312206 28.864936509713285 170 178 170
-2.1001094724580764 3.5008305601925014 21.865567027113773 162 147 140
-1.7472454796627652 -5.2230501549664075 25.932583721307427 145 140 118
-1.4252543875604404 -5.303403329506982 26.079450418415252 144 140 120
-1.6484042197801658 -5.5449072165212439 26.06679972731957 149 142 123
-4.5350598904055861 -5.815543121124624 24.890340000779556 134 129 123
-3.4990168733559912 0.95612359049652684 22.189725461535879 182 161 156
2.7033564107421513 -4.5839193435247729 29.512875932235705 0 0 0
-4.6138424821819486 -5.9904515096565634 25.127198398005461 128 122 115
-1.6305862476388815 -6.4233026993274418 26.448019103286253 149 143 123
-2.9538493628228877 2.6045330373108251 21.627817133918022 178 160 158
-2.0411140168335464 -1.5043200769568958 24.024673614785744 188 172 159
-1.6421592134765974 -2.1414785371326501 24.499037245469182 137 121 105
-1.4886166199250055 -5.2609751284301645 26.02002971932621 144 140 120
-1.7232561213636732 -5.6951532144274886 26.121047607529082 143 137 117
-4.9929792625864202 -5.7061104848043493 25.034757541986288 135 126 119
-4.6008870618948228 -5.7161060600351847 24.746902179839605 138 128 121
-2.9901189551978336 3.4232992466678707 21.295185572852883 173 158 155
-1.9486634105165153 2.6169077870478881 22.222883796890113 167 148 142
-4.8815483161511359 0.46516612472689811 22.13323031315872 181 124 130
-1.9197369307753991 -1.1237235837951429 23.786576594427558 200 191 181
-1.8025266183345598 -1.2224509448945076 23.89490192648789 199 185 174
-2.46068106139146 -1.446607950702157 23.824346580541043 189 172 165
-1.6753331005208278 -2.2583470960109926 24.538529579763289 132 116 95
-1.4341937720125808 -3.5349271784173437 25.342142439462279 140 134 112
-9.1547938298599849 -6.9069866369969857 24.915916465959466 136 132 123
-9.9606559196157445 -7.9317671919472179 24.694054256947428 137 129 118
-6.046330848318699 -9.2876818650582749 26.387951322607879 152 147 132
-2.5604113548726808 4.3127934205105039 21.265214392373142 154 139 130
-2.1638407293122062 1.8732878931095576 22.366239104721245 172 157 154
-1.6626243092731872 1.4034740696973804 22.965043353212909 183 167 167
-4.6942025748321123 -10.351606758950556 28.186541313037143 177 168 171
-3.1273952273511014 4.1719017489161461 20.93505408966702 163 148 141
-2.7994346134736019 3.7969797042163482 21.296148143357332 157 139 133
-3.8219624205863316 2.6825324200207503 21.359369673247091 186 165 164
-2.8596908450177136 1.3983913859904267 22.174018671093403 177 163 160
-2.2915961851331961 0.71301457044792516 22.723187490869229 184 172 172
-3.3704567848492415 0.87269783097408671 22.287007602969222 182 167 163
-4.6654231440936123 -9.8335516094021589 28.063403594242136 183 178 175
-1.617453745060798 -9.5499949349834434 27.989706228535717 168 168 156
-1.5393867317666461 3.2372526754837958 22.293142850732334 152 137 129
-3.7193692062908865 1.8916669822747814 21.72968829164866 182 167 162
2.8488526113018002 -3.6101833280985431 29.339704321910201 0 0 0
-9.6871479057247285 -7.7398909033140422 24.600032558983038 135 128 115
-9.9555822694545384 -7.7320507235845017 24.59378633902957 130 122 111
-5.3569742367996049 -14.384522597692847 28.994501198088571 172 174 167
-1.3996425982909884 2.1544176065442953 22.79183772052464 175 161 158
-8.3032198878343646 -5.0154527386072498 23.88048127887782 132 127 121
-0.11567224628782299 -8.6369336319694057 29.339245636274224 0 0 0
-0.80286879954874801 -9.7239108251908259 29.367467518872395 0 0 0
-5.4145473464760334 -13.371111582026014 28.795587191967581 170 175 167
-5.5775667445862673 -13.452744885007551 28.754796317318185 173 175 164
-5.7094539662830188 -14.624839177384548 28.946998981227896 175 185 180
-5.7222630759761808 -14.848472567857979 28.968666916928516 174 179 172
-2.0846488601595028 -1.5303556040792057 23.947434379514203 197 179 175
-8.5379262615260476 -4.9965026697717585 23.755906210079466 174 171 179
-0.093345795122024927 -8.4108322258627286 29.277046870617301 0 0 0
-9.3847390145089395 -7.8061176609064429 24.732442997355474 138 133 119
-5.3966651611656378 -13.174535319684242 28.739996390041277 174 180 170
-5.6762911251096027 -14.370614616653548 28.90146746635773 175 179 174
-2.190933073551665 3.3595917846708776 21.862599717296757 160 147 141
-1.794372580762124 0.69235404611410256 23.088089964361028 193 181 176
-1.667844578520878 -0.8539918065954879 23.749362157008342 210 201 190
-2.0161087530298434 -1.210598173638965 23.79430079763921 200 196 187
-8.2416124819629193 -5.1436736252592903 23.913403014847002 130 131 123
-8.4600232437534242 -5.3609158003683577 23.895932356557328 120 121 112
-2.4460369686348669 4.229845386075378 21.31379259998717 153 138 131
-1.439436978983921 3.752830838767701 22.183425697675133 142 124 117
-2.8228620152378272 3.6607186513446268 21.328658014787006 170 157 152
-2.8626469288985485 2.834564452007355 21.633462740747412 178 164 155
-3.1487014106136542 1.7563121101856314 21.965890492005261 176 112 112
-3.1487014106136542 1.7563121101856314 21.965890492005261 176 112 112
-2.1882698684453454 0.8716020149459589 22.746490955788545 188 178 173
-1.8868338561103037 0.71129239001899902 22.975879094722774 196 179 172
-3.5525104693534919 0.85334244870412701 22.211608340614841 185 167 165
-1.4680406999149944 0.41497783164192031 23.463435316039135 201 191 185
-2.0381059572379376 0.25448842616407136 23.081042451346828 198 193 190
-1.5828703051564936 0.034192489576344319 23.391886001903622 201 192 183
-1.5828703051564936 0.034192489576344319 23.391886001903622 201 192 183
-1.3992655953785016 -0.037845576144466035 23.58679224983284 217 207 195
-1.6719490279493188 -0.13399577702458226 23.411920336861197 216 211 203
-2.5424536846469197 -0.056071190593767098 22.936737753321857 193 175 173
-2.5424536846469197 -0.056071190593767098 22.936737753321857 193 175 173
-1.9772977714245186 -0.37840911965534152 23.421056191541833 193 180 177
-1.8823576399112929 -0.48322441195965327 23.475037567498145 215 206 198
-2.1230567145911916 -0.51808441785466575 23.419612175446066 214 202 198
-1.4237860815332721 -0.77382519179707243 23.841899890882544 194 181 173
-2.0531517429485926 -0.685869963242143 23.513606321854297 211 204 198
-1.6449426050054887 -0.76802632252196834 23.716645987251265 214 201 190
-1.446479193142042 -1.0129827152065887 23.934375374892895 147 133 115
-2.0983557016433267 -0.93333663093181285 23.642530445852731 209 206 197
-2.0983557016433267 -0.93333663093181285 23.642530445852731 209 206 197
-1.9253203705736777 -1.0702923732271037 23.731951300219645 198 194 183
-2.1976910576937554 -1.0398261078004045 23.650021800173114 202 196 187
-1.6623267495520895 -1.327332359732547 23.963362521449803 192 182 172
-2.292179107461493 -1.5973478124315661 24.024833434934756 203 184 178
-1.1584801310756441 -5.8305538452579002 26.416394434010364 158 156 135
-4.8514216164538864 -5.8033248670585547 24.840133409680821 139 136 121
-3.1843304819769429 5.168195526758149 20.544320401604974 153 136 129
-3.2886526308191368 5.17960939077446 20.526312044406843 146 127 120
-2.382903942763078 4.2195141383504042 21.332623998552702 147 133 124
-2.8060297236340399 3.9194900839736535 21.20801433318595 165 147 138
-2.9736556333586148 3.9558943275548573 21.106395576667975 163 147 140
-3.972665424887849 3.9894302654799705 20.710005557939887 169 154 147
-3.2586680541233464 3.7256333051535231 21.029209072269097 171 156 150
-3.0745822106547007 3.408335164242009 21.346062184967231 174 156 152
-3.1908396076062377 3.3389766107023031 21.217642522644322 177 159 157
-2.9294570580888264 3.2491496356543337 21.402854957668406 176 160 155
-2.9294570580888264 3.2491496356543337 21.402854957668406 176 160 155
-2.0866224514069329 2.7664060031753475 22.125604498041682 162 149 143
-1.8326518795002815 2.3539413916300314 22.432801717999553 169 153 153
-2.3806200333055574 2.307228268920468 22.074920352037381 170 152 148
-2.0822002516951188 2.1837788616754024 22.350357827258183 171 156 153
-2.0172123797144144 2.1355618741348477 22.381881171096154 172 156 156
-2.6682656474805504 1.5552347620952705 22.195662533208793 174 160 157
-1.866178127880497 1.2719627234038231 22.811893520385841 184 176 171
-1.8934527349209052 1.2266683330161752 22.809298155783118 190 179 177
-1.8934527349209052 1.2266683330161752 22.809298155783118 190 179 177
-2.0760300897304287 1.2620464454500333 22.648798123010746 182 173 170
-2.433303566818223 1.338174191337367 22.385489616567284 176 167 163
-1.6056154267766478 1.1248280778072188 23.099857985145452 195 182 178
-1.8639220972835733 1.1119198730874105 22.87648380342528 187 176 172
-4.1477051609287985 1.4632394223937002 21.793985114297538 179 161 157
-4.2324019476845827 1.3854428917395771 21.808346779039965 179 159 159
-2.1405712024513388 0.93172380348165629 22.738523139654532 188 177 175
-1.425407845731852 0.77358474323909598 23.369478388486559 202 191 189
-1.8486867085079814 0.79845224766113165 22.981983712147194 195 180 176
-2.0250360246732968 0.82890812493433563 22.852918582140632 188 178 172
-6.6219428821255564 -13.551352770585261 29.826886872746979 171 168 159
-2.7182229301755978 2.0286569199821138 21.982194030874325 172 158 157
-2.7182229301755978 2.0286569199821138 21.982194030874325 172 158 157
-2.8110716642175899 1.4340280222439576 22.170644280920655 174 158 159
-5.057392211454272 -5.758709513632108 25.030405301349212 156 138 144
-5.2106073565294411 -6.0354688103487151 25.168914943026667 120 109 103
-6.6050899002361918 -13.014918352536911 28.310672714811755 168 169 163
1.057500934570601 9.4252362260499574 26.971625435425413 0 0 0
2.8459966735470794 8.649146815597943 27.743062495624812 0 0 0
3.3614860419657435 7.6317315472836729 28.166118306355994 0 0 0
3.3614860419657435 7.6317315472836729 28.166118306355994 0 0 0
2.7019887115505239 3.909371081396535 21.343635805733918 148 135 131
2.8649953969947144 3.7608580085216499 21.260654115618394 158 144 140
2.8849945970104254 3.0706054870823571 21.62252098269191 172 160 155
2.0332368585755503 0.54528853340511296 22.954435542635483 183 173 174
2.2582749546922738 -0.59767166512033332 23.305057536119332 182 172 168
.69676869682024489 -5.6027837239147482 28.840568677099185 147 140 121
-2.7994346134736019 3.7969797042163482 21.296148143357332 136 123 115
4.8282204799742603 -5.8465343815427513 25.40489929083137 154 135 137
-2.2228044362793278 -1.4203515070033901 23.437166848557293 143 136 117
.64243252346205337 9.3740949123698698 26.84493664779993 0 0 0
.23767810586122659 9.3623335717780662 26.725513008641695 0 0 0
.8651933063430333 8.9214683180833489 27.66253283977646 0 0 0
-4.2517933883838364 -1.223541413486968 22.809247076186377 174 156 155
.8515118514220887 8.1696396664930351 27.874856020054871 0 0 0
2.7570773493804341 3.9281215371442113 21.229288999917884 148 135 129
-1.4288528654423562 -0.42910175710449616 23.637848203248122 156 143 134
2.5818002419510497 2.6740298155285034 21.880205090936578 167 160 154
-2.2071043883266199 -1.1755047007294241 23.718098306474857 140 136 116
3.0892285741826946 2.235802642691612 21.768168515263262 179 163 164
3.164850979760323 2.1826004533986247 21.722836794543252 182 168 168
2.3004325904566603 0.97921808790792764 22.547186257985903 172 164 162
-2.5601723977998141 3.1810574906784019 21.775308191866252 146 138 135
2.4947263645268696 0.89289217582685254 22.502258449639854 173 163 162
-4.0463941896732454 1.7704608213598301 21.697977862161785 170 161 159
2.1627909390517304 0.80003891894829893 22.735289869029959 174 164 162
-1.6719490279493161 -0.13399577702458235 23.41192033686119 151 138 129
2.3777381802823698 0.71971653633993937 22.627865673167943 183 178 175
-3.2630038926579381 0.036045981761829611 22.641151339630984 184 176 173
3.7765582037579217 0.63885567453035796 22.27137072922806 184 164 163
2.6507047419000429 -0.71711738048033746 23.200540037367755 177 161 161
-3.2526932817634595 -0.90566429425864436 23.117829509818858 181 173 171
2.3251665879282495 -0.73087094848278356 23.294806884764988 188 177 175
-1.567323220933005 -1.6972930962682966 23.725170023305665 153 147 129
3.253033381271039 -0.91328507226271594 23.173561495199348 190 176 175
-4.4040651260395869 -1.4215763035033224 22.900632097970192 178 168 166
-3.2361906842703885 2.0975244820524122 21.733629777837471 163 153 152
.8250239552905829 7.628263164277973 28.334814705495177 0 0 0
-0.11506352680242805 -1.8861770223841499 27.85832833719525 195 184 192
.2055046079217071 7.4733559941209471 28.473212663580682 0 0 0
-0.13150998604404773 -2.0312092367734609 27.875266637845932 188 179 187
.6448776939786254 6.6691728367187428 28.164790835595959 0 0 0
-5.013517263016392 -6.0149081957565622 24.961666417990489 170 155 160
.4513529404211862 6.1254061110413227 28.888380909789593 0 0 0
-2.1629266541213092 1.9254078616611625 22.390302644525438 167 156 155
3.176314049461356 3.4893488278677167 21.301598772145969 166 150 150
2.5933491694000854 1.9073906006097978 22.118516281020817 174 162 160
2.5928770719986942 1.9105806255276385 22.107688303090953 174 162 160
-4.906453382172046 -5.7530202065174212 24.909196296307506 171 159 159
2.337632722393157 1.8747239287225625 22.281759076613707 162 151 145
-0.39604644551295087 9.1754036210377503 26.018403118847946 0 0 0
2.3706992362041244 1.8380533444789164 22.285626322557576 162 148 147
2.9964706283820277 5.5182655381999961 27.6301198472617 0 0 0
2.4828989015666143 0.94594182318538877 22.49455102433944 174 164 164
2.2619601717184494 0.82493852935930456 22.637505460903618 175 165 166
-3.8797206761909999 1.1444340432358358 22.016403210977479 177 153 154
-1.9637565928283878 0.76537362200668457 22.937874897258833 205 190 187
-3.6895532381576439 2.2500399134213245 21.552129258629773 173 152 151
-1.9637565928283878 0.76537362200668457 22.937874897258833 205 190 187
.7794260768931023 -1.3227138163544236 23.712250937614698 156 140 125
-2.8214149286574215 2.4673629161237134 21.780721765001342 160 148 145
.1942010753546031 -1.271034796020478 23.48643990683917 196 188 186
-2.2005104122570853 2.5382501710460423 22.153156249345873 145 136 129
.0155910209173027 -1.2168662731272599 23.618988329823026 157 144 129
3.2783228315350117 -0.53144400279739912 22.872505597268685 182 158 160
3.2783228315350117 -0.53144400279739912 22.872505597268685 182 158 160
.468259006120384 7.8645991418428984 28.432041514079401 0 0 0
.6389771114004081 8.0722600342896609 27.836980593534335 0 0 0
.3288291993863908 8.3461207928239407 28.26174341532257 0 0 0
.3249753328018548 8.4219412845590451 28.25293861376753 0 0 0
-0.22489798059407992 8.9521609761359393 26.09362462828873 0 0 0
.3249753328018548 8.4219412845590451 28.25293861376753 0 0 0
-5.4323450961375634 -15.234473089079987 29.153304976244872 170 172 167
.4746167207857566 8.549792786526714 27.946674912186388 0 0 0
.0563015100923749 9.040451545170983 27.090950676451172 0 0 0
.33677177778632389 9.6310869238180725 26.669845313586695 0 0 0
-3.304561622507741 2.0474853041397014 21.662200527311377 167 155 150
4.9243439388432986 -5.86718575072641 25.13675489800346 150 128 131
.79959339367988624 -5.9578131680913069 28.989232860641884 154 150 130
1.8357328227903487 -1.957356247422452 24.188217446036358 155 148 127
-2.8461482293297378 4.2677058097899501 21.027916011612874 120 103 98
-11.947580577704651 -3.6002468270068348 23.60276431965864 121 123 114
-9.5385221318053972 -2.3911406153219574 23.518899722943008 190 180 179
-1.6213621252488761 -2.018415744436409 24.120068397721042 151 150 132
2.2051526271786499 -1.3465487213761822 23.634960496206066 173 160 147
-2.9366527598037728 -1.248152920571802 23.429202747127 183 180 171
3.1274088047753685 -1.2527915931521416 23.432569772028227 173 153 152
3.127408804775369 -1.2527915931521423 23.432569772028231 173 153 152
-2.2410965234562448 0.92806530304953805 22.395110361967877 191 183 181
4.8819581164998329 -1.1706579386844305 22.72614071595207 180 116 116
2.3322209079369101 -0.96699831108639811 23.546585693336102 184 176 174
-9.820981729067924 -7.6207114832733822 24.618129170495237 184 175 178
-5.2912622229236126 -6.4741527763210502 25.375161398388951 121 111 101
0.2763113683866284 -6.3703701831152371 28.868025023446286 156 153 135
0.35156319438407546 -5.8237027710235303 28.753717637535949 152 151 131
2.1710305505346139 -3.2409893057075778 28.906908233509917 194 171 179
4.3959665053859114 5.6182830980667049 28.97150011171296 0 0 0
4.4391992042086734 5.9534722263694464 28.91477472352264 0 0 0
-11.993694620806389 5.644470948402426 23.816501438662552 119 111 93
-11.993694620806389 5.644470948402426 23.816501438662552 119 111 93
-10.956714607093236 -10.238656866969183 26.318584722468394 219 219 219
-9.5340866943865326 -7.872721120398448 24.682538286521726 207 201 201
-8.8516128346903411 -8.1956475323623952 27.991258223841594 107 96 90
-2.8312920689199959 2.9106928972697004 21.609754279107715 175 160 155
4.3767974474784488 7.1623968837896044 28.608775249658969 0 0 0
-7.6368760831885991 -13.321259814993292 29.385862487441443 144 146 144
-3.2623742878534889 -11.603565941640602 28.999614037143566 159 160 148
-3.2623742878534889 -11.603565941640602 28.999614037143566 159 160 148
-2.5492162014858608 1.7418742130316169 22.104046043686392 170 154 155
-3.1422907179873274 3.3917133349762323 21.38565496776561 167 149 149
-5.8543998286910144 -13.108620266528572 28.583797100855421 173 172 167
-2.6558758272851648 2.0281893865042 22.031611045243864 174 158 157
-3.1273952273511014 4.1719017489161461 20.93505408966702 155 136 134
-4.2308228487212629 -0.24032552968018628 22.56923022085979 174 155 153
-4.5045880455941907 -1.5107115546498717 22.940035996194663 183 163 162
-4.3731721605745113 -1.360684412061955 22.878529422182005 169 151 151
-4.3731721605745113 -1.360684412061955 22.878529422182005 169 151 151
-3.0789672336723792 -1.0087921837522222 23.29607444965804 187 168 164
-2.07861122466793 -0.34713793507377466 23.355750495095823 203 193 191
-4.0184333234318474 0.18076190261462685 22.281406086186003 176 147 143
-2.9952827774106967 0.16722519260328239 22.650551110194236 189 173 172
-3.8934631962301629 0.43669020637090838 22.272086846752007 195 173 175
-3.2606000142866063 0.49893569406047594 22.439851469952604 188 157 155
-3.2606000142866063 0.49893569406047594 22.439851469952604 188 157 155
-1.9262748430267551 0.36725560029786192 23.083849194608646 202 190 188
-3.3726317666770926 0.7556313050786142 22.294010284439306 192 175 173
-3.3433369447925099 0.79398558080142145 22.30657809207462 182 164 160
-2.0945217300605354 0.55078998566696014 22.906982163846752 194 182 182
-2.2545947093266925 0.93273274797987737 22.68038440978442 189 175 171
-2.6995105881252397 1.3942479406678809 22.23840594740691 178 164 161
-2.5095216310267112 1.445606413050126 22.3425994376727 180 169 167
-1.7006852747021672 1.3553551173188016 22.963380764684207 189 177 172
-2.2681326328737272 1.5174813284482211 22.430601423033437 179 165 162
-3.6908942547018242 1.8138684852829894 21.758040883332431 185 171 170
-3.8318236022705037 1.9163257072795274 21.676423734051795 181 166 166
-1.9629224329938819 1.5419788487471702 22.638735163090278 184 170 169
-4.1316657756209869 1.9945130118497092 21.57539619362333 185 139 142
-2.7301867553039165 1.8048531605155407 22.096768711684984 178 163 160
-2.4203099244022663 1.7788465058207477 22.242010799106019 172 157 158
-2.292711761892281 1.772167565106139 22.330453615704446 171 157 156
-3.6446605545529045 2.1098080515827622 21.622497889214166 180 165 162
-3.2882149663424456 2.2053588447152976 21.672843485715575 180 161 156
-2.5956249921313961 2.0649947436378975 22.019190884370264 173 156 148
-2.4332732409972366 2.0559235805192753 22.157393363486985 172 156 151
-3.434308220661344 2.563543150868032 21.451539842907287 183 172 168
-4.1412290884129099 2.7432665899330866 21.265630912960088 191 175 175
-3.003298811176597 2.7521142614783254 21.576593332795255 178 159 156
-2.1228024666346523 2.7371599936271505 22.115565862894002 162 149 143
-3.8562209199818844 3.1612551828195068 21.088448224978642 180 152 152
-2.026709973927082 2.8066248304192984 22.142400177384737 163 145 141
-4.041448020824844 3.2828913153227326 20.98194049077664 179 168 164
-2.6143440104172013 2.9955911840213099 21.760383849864905 174 157 150
-3.5070931167726549 3.2319783934758757 21.168573196043177 175 161 153
-3.1998607695351309 3.433468332240214 21.156639864964237 175 160 157
-2.9398510414052073 3.4904025175090183 21.324416630970209 174 158 154
-3.4413299214769122 3.6678290525364279 20.96743326091066 167 149 145
-2.9273073623622863 3.5920511773781008 21.288520667086782 171 156 149
-3.2486936290314463 3.918452072820382 20.976850121415644 166 151 146
-2.4100600660476283 3.781655803634683 21.517496389289921 161 150 146
-3.0442491220140733 3.9399097117325907 21.03706775114609 162 146 139
-3.3217467679116681 4.0257838161595956 20.893210477951055 169 156 148
-3.1174503231215565 4.0952256447229214 20.958860386577822 163 150 141
-3.1774901387025398 4.1435643766537478 20.894293901428203 167 148 142
-3.0374656797948707 4.1957109959318108 20.963164253035551 164 150 139
-2.9890137331978184 4.2067597589368306 20.949255088128677 162 145 135
-2.1849028429271091 4.6300978702895357 21.306037843575346 128 113 107
-3.0204197919349873 5.1384744243057323 20.683891877849515 140 122 115
-4.7044287967114737 -1.0003306351202355 22.64703185172554 181 164 164
-1.5205663702208938 -1.4636175871957757 24.090010020830359 132 116 101
-1.3699138981563925 -1.0831306072796003 24.021436628908216 142 129 116
-1.9855795499484892 -0.94859810306796699 23.699620012177125 213 210 203
-2.4692539332067551 -0.80688680441023553 23.411328698653666 191 175 172
-1.8704849865860982 -0.69747192931527546 23.530201999266634 208 199 190
-1.2872790472047715 -0.093239137299793967 23.68679486049934 213 198 193
-1.6775253925250067 0.14275801296847868 23.337843023827038 212 203 198
-1.7327154480384983 0.25049508814400717 23.233361202707119 205 197 194
-2.3345611631581269 0.63700669533869902 22.701545586274861 188 180 178
-1.7783894871745032 0.56185406909486257 23.116131303675818 198 191 186
-2.3944260584911388 0.72125566176250999 22.661384801275009 189 179 177
