ply
format ascii 1.0
comment Created by Open3D
element vertex 10
property double x
property double y
property double z
property uchar red
property uchar green
property uchar blue
end_header
-8,97216 7,34585 -14,0995 156 156 146
-8,17699 7,7649 -14,2995 138 133 114
-7,96747 7,57915 -14,304 159 157 142
-7,69168 5,75488 -13,9317 158 156 144
-7,90362 7,9443 -14,4017 157 154 139
-7,40971 10,4266 -14,8461 163 156 146
-6,33202 4,21864 -13,0382 184 178 180
-6,96613 10,1037 -14,8725 138 132 116
-6,04672 3,4529 -12,7658 154 132 134
-6,06736 4,3673 -13,0896 180 160 159
